<svg width="48" height="48" viewBox="0 0 48 48" fill="none" xmlns="http://www.w3.org/2000/svg">
<path fill-rule="evenodd" clip-rule="evenodd" d="M42 2H6C3.79086 2 2 3.79086 2 6V42C2 44.2091 3.79086 46 6 46H42C44.2091 46 46 44.2091 46 42V6C46 3.79086 44.2091 2 42 2ZM6 0C2.68629 0 0 2.68629 0 6V42C0 45.3137 2.68629 48 6 48H42C45.3137 48 48 45.3137 48 42V6C48 2.68629 45.3137 0 42 0H6Z" fill="white"/>
<path d="M20.0662 31H17.2537L22.3745 16.4545H25.6273L30.7551 31H27.9426L24.0577 19.4375H23.9441L20.0662 31ZM20.1586 25.2969H27.829V27.4134H20.1586V25.2969Z" fill="white"/>
</svg>
