<svg width="48" height="48" viewBox="0 0 48 48" fill="none" xmlns="http://www.w3.org/2000/svg">
<path fill-rule="evenodd" clip-rule="evenodd" d="M42 2H6C3.79086 2 2 3.79086 2 6V42C2 44.2091 3.79086 46 6 46H42C44.2091 46 46 44.2091 46 42V6C46 3.79086 44.2091 2 42 2ZM6 0C2.68629 0 0 2.68629 0 6V42C0 45.3137 2.68629 48 6 48H42C45.3137 48 48 45.3137 48 42V6C48 2.68629 45.3137 0 42 0H6Z" fill="white"/>
<path d="M23.1175 31H18.1886V16.4545H23.217C24.6611 16.4545 25.9016 16.7457 26.9386 17.3281C27.9802 17.9058 28.7804 18.7367 29.3391 19.821C29.8978 20.9053 30.1772 22.2027 30.1772 23.7131C30.1772 25.2282 29.8955 26.5303 29.332 27.6193C28.7733 28.7083 27.966 29.544 26.9102 30.1264C25.859 30.7088 24.5948 31 23.1175 31ZM20.8235 28.7202H22.9897C24.003 28.7202 24.8481 28.5355 25.5252 28.1662C26.2023 27.7921 26.7113 27.2358 27.0522 26.4972C27.3931 25.7538 27.5636 24.8258 27.5636 23.7131C27.5636 22.6004 27.3931 21.6771 27.0522 20.9432C26.7113 20.2045 26.207 19.6529 25.5394 19.2884C24.8765 18.919 24.0527 18.7344 23.0678 18.7344H20.8235V28.7202Z" fill="white"/>
</svg>
