<svg width="48" height="48" viewBox="0 0 48 48" fill="none" xmlns="http://www.w3.org/2000/svg">
<path fill-rule="evenodd" clip-rule="evenodd" d="M42 2H6C3.79086 2 2 3.79086 2 6V42C2 44.2091 3.79086 46 6 46H42C44.2091 46 46 44.2091 46 42V6C46 3.79086 44.2091 2 42 2ZM6 0C2.68629 0 0 2.68629 0 6V42C0 45.3137 2.68629 48 6 48H42C45.3137 48 48 45.3137 48 42V6C48 2.68629 45.3137 0 42 0H6Z" fill="white"/>
<path d="M10.5859 32V17.4545H19.9041V19.6634H13.2209V23.6122H19.2649V25.821H13.2209V32H10.5859ZM27.9588 17.4545V32H25.3239V20.0185H25.2386L21.8366 22.1918V19.777L25.4517 17.4545H27.9588ZM37.4482 17.4545V32H34.8132V20.0185H34.728L31.326 22.1918V19.777L34.9411 17.4545H37.4482Z" fill="white"/>
</svg>
