<svg width="48" height="48" viewBox="0 0 48 48" fill="none" xmlns="http://www.w3.org/2000/svg">
<path fill-rule="evenodd" clip-rule="evenodd" d="M42 2H6C3.79086 2 2 3.79086 2 6V42C2 44.2091 3.79086 46 6 46H42C44.2091 46 46 44.2091 46 42V6C46 3.79086 44.2091 2 42 2ZM6 0C2.68629 0 0 2.68629 0 6V42C0 45.3137 2.68629 48 6 48H42C45.3137 48 48 45.3137 48 42V6C48 2.68629 45.3137 0 42 0H6Z" fill="black"/>
<path d="M23.3226 31.5256L16.4334 24.6364L23.3226 17.7472L24.7857 19.196L20.4036 23.5781H31.0499V25.6946H20.4036L24.7857 30.0696L23.3226 31.5256Z" fill="black"/>
</svg>
