<svg width="48" height="48" viewBox="0 0 48 48" fill="none" xmlns="http://www.w3.org/2000/svg">
<path fill-rule="evenodd" clip-rule="evenodd" d="M42 2H6C3.79086 2 2 3.79086 2 6V42C2 44.2091 3.79086 46 6 46H42C44.2091 46 46 44.2091 46 42V6C46 3.79086 44.2091 2 42 2ZM6 0C2.68629 0 0 2.68629 0 6V42C0 45.3137 2.68629 48 6 48H42C45.3137 48 48 45.3137 48 42V6C48 2.68629 45.3137 0 42 0H6Z" fill="black"/>
<path d="M26.8453 20.4531C26.7791 19.8329 26.4997 19.3499 26.0073 19.0043C25.5196 18.6586 24.8851 18.4858 24.1039 18.4858C23.5546 18.4858 23.0835 18.5687 22.6905 18.7344C22.2975 18.9001 21.9969 19.125 21.7885 19.4091C21.5802 19.6932 21.4737 20.0175 21.4689 20.3821C21.4689 20.6851 21.5376 20.9479 21.6749 21.1705C21.8169 21.393 22.0087 21.5824 22.2502 21.7386C22.4917 21.8902 22.7592 22.018 23.0527 22.1222C23.3463 22.2263 23.6422 22.3139 23.9405 22.3849L25.3042 22.7259C25.8534 22.8537 26.3813 23.0265 26.888 23.2443C27.3993 23.4621 27.8562 23.7367 28.2587 24.0682C28.6659 24.3996 28.9879 24.7997 29.2246 25.2685C29.4614 25.7372 29.5797 26.2865 29.5797 26.9162C29.5797 27.7685 29.3619 28.5189 28.9263 29.1676C28.4907 29.8116 27.861 30.3158 27.0371 30.6804C26.218 31.0402 25.226 31.2202 24.0613 31.2202C22.9296 31.2202 21.9471 31.045 21.1138 30.6946C20.2852 30.3442 19.6365 29.8329 19.1678 29.1605C18.7038 28.4882 18.4528 27.669 18.415 26.7031H21.0073C21.0452 27.2098 21.2014 27.6312 21.476 27.9673C21.7507 28.3035 22.1081 28.5545 22.5485 28.7202C22.9935 28.8859 23.4907 28.9688 24.04 28.9688C24.6129 28.9688 25.1148 28.8835 25.5456 28.7131C25.9812 28.5379 26.3221 28.2964 26.5684 27.9886C26.8146 27.6761 26.94 27.3116 26.9448 26.8949C26.94 26.5161 26.8288 26.2036 26.611 25.9574C26.3932 25.7064 26.0878 25.4981 25.6948 25.3324C25.3065 25.1619 24.852 25.0104 24.3311 24.8778L22.6763 24.4517C21.4784 24.1439 20.5314 23.6776 19.8354 23.0526C19.1441 22.4228 18.7985 21.5871 18.7985 20.5455C18.7985 19.6884 19.0305 18.938 19.4945 18.294C19.9632 17.6501 20.6001 17.1506 21.405 16.7955C22.2099 16.4356 23.1214 16.2557 24.1394 16.2557C25.1716 16.2557 26.0759 16.4356 26.8525 16.7955C27.6337 17.1506 28.2469 17.6454 28.6919 18.2798C29.137 18.9096 29.3667 19.634 29.3809 20.4531H26.8453Z" fill="black"/>
</svg>
