<svg width="48" height="48" viewBox="0 0 48 48" fill="none" xmlns="http://www.w3.org/2000/svg">
<path fill-rule="evenodd" clip-rule="evenodd" d="M42 2H6C3.79086 2 2 3.79086 2 6V42C2 44.2091 3.79086 46 6 46H42C44.2091 46 46 44.2091 46 42V6C46 3.79086 44.2091 2 42 2ZM6 0C2.68629 0 0 2.68629 0 6V42C0 45.3137 2.68629 48 6 48H42C45.3137 48 48 45.3137 48 42V6C48 2.68629 45.3137 0 42 0H6Z" fill="black"/>
<path d="M16.5479 26.6946V24.5781H28.7781C29.2799 24.5781 29.7369 24.455 30.1488 24.2088C30.5607 23.9626 30.8898 23.6335 31.136 23.2216C31.3822 22.8049 31.5053 22.3456 31.5053 21.8438C31.5053 21.3419 31.3822 20.8873 31.136 20.4801C30.8898 20.0682 30.5607 19.7391 30.1488 19.4929C29.7369 19.242 29.2799 19.1165 28.7781 19.1165H27.9116V17H28.7781C29.6729 17 30.485 17.2178 31.2141 17.6534C31.948 18.089 32.5328 18.6738 32.9684 19.4077C33.404 20.1368 33.6218 20.9489 33.6218 21.8438C33.6218 22.5114 33.4963 23.1387 33.2454 23.7259C32.9944 24.313 32.6464 24.8291 32.2013 25.2741C31.7563 25.7192 31.2402 26.0672 30.6531 26.3182C30.0707 26.5691 29.4457 26.6946 28.7781 26.6946H16.5479ZM20.9798 32.1847L14.4315 25.6364L20.9798 19.0881L22.4357 20.544L17.3363 25.6364L22.4357 30.7287L20.9798 32.1847Z" fill="black"/>
</svg>
