<svg width="146" height="48" viewBox="0 0 146 48" fill="none" xmlns="http://www.w3.org/2000/svg">
<path fill-rule="evenodd" clip-rule="evenodd" d="M140 2H6C3.79086 2 2 3.79086 2 6V42C2 44.2091 3.79086 46 6 46H140C142.209 46 144 44.2091 144 42V6C144 3.79086 142.209 2 140 2ZM6 0C2.68629 0 0 2.68629 0 6V42C0 45.3137 2.68629 48 6 48H140C143.314 48 146 45.3137 146 42V6C146 2.68629 143.314 0 140 0H6Z" fill="white"/>
<path d="M18.5865 32V17.4545H21.2215V29.7912H27.6277V32H18.5865ZM29.7947 32V17.4545H39.2549V19.6634H32.4296V23.6122H38.7648V25.821H32.4296V29.7912H39.3117V32H29.7947ZM41.8231 32V17.4545H51.2833V19.6634H44.458V23.6122H50.7933V25.821H44.458V29.7912H51.3401V32H41.8231ZM53.8515 32V17.4545H59.3061C60.4235 17.4545 61.361 17.6487 62.1186 18.0369C62.8809 18.4252 63.4562 18.9697 63.8444 19.6705C64.2374 20.3665 64.4339 21.1785 64.4339 22.1065C64.4339 23.0393 64.2351 23.849 63.8373 24.5355C63.4443 25.2173 62.8643 25.7453 62.0973 26.1193C61.3302 26.4886 60.388 26.6733 59.2706 26.6733H55.3856V24.4858H58.9155C59.5689 24.4858 60.1039 24.3958 60.5206 24.2159C60.9372 24.0312 61.245 23.7637 61.4439 23.4134C61.6475 23.0582 61.7493 22.6226 61.7493 22.1065C61.7493 21.5904 61.6475 21.1501 61.4439 20.7855C61.2403 20.4162 60.9301 20.1368 60.5135 19.9474C60.0968 19.7533 59.5594 19.6562 58.9012 19.6562H56.4865V32H53.8515ZM61.3657 25.4091L64.9666 32H62.0262L58.4893 25.4091H61.3657ZM66.1001 19.6634V17.4545H77.7053V19.6634H73.2095V32H70.5959V19.6634H66.1001ZM79.9326 32H77.1201L82.2408 17.4545H85.4936L90.6215 32H87.809L83.924 20.4375H83.8104L79.9326 32ZM80.0249 26.2969H87.6953V28.4134H80.0249V26.2969ZM100.088 21.4531C100.021 20.8329 99.7421 20.3499 99.2497 20.0043C98.762 19.6586 98.1275 19.4858 97.3463 19.4858C96.797 19.4858 96.3259 19.5687 95.9329 19.7344C95.5399 19.9001 95.2393 20.125 95.0309 20.4091C94.8226 20.6932 94.7161 21.0175 94.7113 21.3821C94.7113 21.6851 94.78 21.9479 94.9173 22.1705C95.0594 22.393 95.2511 22.5824 95.4926 22.7386C95.7341 22.8902 96.0016 23.018 96.2952 23.1222C96.5887 23.2263 96.8846 23.3139 97.1829 23.3849L98.5466 23.7259C99.0958 23.8537 99.6237 24.0265 100.13 24.2443C100.642 24.4621 101.099 24.7367 101.501 25.0682C101.908 25.3996 102.23 25.7997 102.467 26.2685C102.704 26.7372 102.822 27.2865 102.822 27.9162C102.822 28.7685 102.604 29.5189 102.169 30.1676C101.733 30.8116 101.103 31.3158 100.28 31.6804C99.4604 32.0402 98.4684 32.2202 97.3037 32.2202C96.172 32.2202 95.1896 32.045 94.3562 31.6946C93.5276 31.3442 92.879 30.8329 92.4102 30.1605C91.9462 29.4882 91.6952 28.669 91.6574 27.7031H94.2497C94.2876 28.2098 94.4438 28.6312 94.7184 28.9673C94.9931 29.3035 95.3505 29.5545 95.7909 29.7202C96.236 29.8859 96.7331 29.9688 97.2824 29.9688C97.8553 29.9688 98.3572 29.8835 98.788 29.7131C99.2237 29.5379 99.5646 29.2964 99.8108 28.9886C100.057 28.6761 100.182 28.3116 100.187 27.8949C100.182 27.5161 100.071 27.2036 99.8534 26.9574C99.6356 26.7064 99.3302 26.4981 98.9372 26.3324C98.5489 26.1619 98.0944 26.0104 97.5736 25.8778L95.9187 25.4517C94.7208 25.1439 93.7738 24.6776 93.0778 24.0526C92.3865 23.4228 92.0409 22.5871 92.0409 21.5455C92.0409 20.6884 92.2729 19.938 92.7369 19.294C93.2057 18.6501 93.8425 18.1506 94.6474 17.7955C95.4523 17.4356 96.3638 17.2557 97.3818 17.2557C98.414 17.2557 99.3184 17.4356 100.095 17.7955C100.876 18.1506 101.489 18.6454 101.934 19.2798C102.379 19.9096 102.609 20.634 102.623 21.4531H100.088ZM104.412 19.6634V17.4545H116.017V19.6634H111.521V32H108.908V19.6634H104.412ZM118.134 32V17.4545H127.595V19.6634H120.769V23.6122H127.105V25.821H120.769V29.7912H127.651V32H118.134Z" fill="white"/>
</svg>
