<svg width="48" height="48" viewBox="0 0 48 48" fill="none" xmlns="http://www.w3.org/2000/svg">
<path fill-rule="evenodd" clip-rule="evenodd" d="M42 2H6C3.79086 2 2 3.79086 2 6V42C2 44.2091 3.79086 46 6 46H42C44.2091 46 46 44.2091 46 42V6C46 3.79086 44.2091 2 42 2ZM6 0C2.68629 0 0 2.68629 0 6V42C0 45.3137 2.68629 48 6 48H42C45.3137 48 48 45.3137 48 42V6C48 2.68629 45.3137 0 42 0H6Z" fill="black"/>
<path d="M18.4274 31L14.3223 16.4545H17.1561L19.7768 27.1435H19.9118L22.71 16.4545H25.2882L28.0936 27.1506H28.2214L30.8422 16.4545H33.676L29.5708 31H26.9714L24.0595 20.794H23.9458L21.0268 31H18.4274Z" fill="black"/>
</svg>
