{
  "accessors": [
    {
      "bufferView": 2,
      "componentType": 5126,
      "count": 224,
      "max": [
        0.20597906410694122,
        0.10312353074550629,
        0.042625024914741516
      ],
      "min": [
        -0.20651505887508392,
        -0.10312353074550629,
        -0.06106936186552048
      ],
      "type": "VEC3"
    },
    {
      "bufferView": 2,
      "byteOffset": 2688,
      "componentType": 5126,
      "count": 224,
      "max": [
        1.0,
        1.0,
        1.0
      ],
      "min": [
        -1.0,
        -1.0,
        -1.0
      ],
      "type": "VEC3"
    },
    {
      "bufferView": 3,
      "componentType": 5126,
      "count": 224,
      "max": [
        1.0,
        1.0,
        0.0,
        1.0
      ],
      "min": [
        -1.0,
        -1.069032987288665e-05,
        -1.0,
        1.0
      ],
      "type": "VEC4"
    },
    {
      "bufferView": 1,
      "componentType": 5126,
      "count": 224,
      "max": [
        0.9963166117668152,
        0.9897206425666809
      ],
      "min": [
        0.0036833572667092085,
        0.0036833551712334156
      ],
      "type": "VEC2"
    },
    {
      "bufferView": 1,
      "byteOffset": 1792,
      "componentType": 5126,
      "count": 224,
      "max": [
        0.9963166117668152,
        0.9897206425666809
      ],
      "min": [
        0.0036833572667092085,
        0.0036833551712334156
      ],
      "type": "VEC2"
    },
    {
      "bufferView": 1,
      "byteOffset": 3584,
      "componentType": 5126,
      "count": 224,
      "max": [
        0.9963166117668152,
        0.9897206425666809
      ],
      "min": [
        0.0036833572667092085,
        0.0036833551712334156
      ],
      "type": "VEC2"
    },
    {
      "bufferView": 1,
      "byteOffset": 5376,
      "componentType": 5126,
      "count": 224,
      "max": [
        0.9963166117668152,
        0.9897206425666809
      ],
      "min": [
        0.0036833572667092085,
        0.0036833551712334156
      ],
      "type": "VEC2"
    },
    {
      "bufferView": 0,
      "componentType": 5125,
      "count": 372,
      "type": "SCALAR"
    },
    {
      "bufferView": 2,
      "byteOffset": 5376,
      "componentType": 5126,
      "count": 3688,
      "max": [
        0.024012237787246704,
        0.02344619482755661,
        0.08006685227155685
      ],
      "min": [
        -0.023987770080566406,
        -0.024553798139095306,
        -0.0065895491279661655
      ],
      "type": "VEC3"
    },
    {
      "bufferView": 2,
      "byteOffset": 49632,
      "componentType": 5126,
      "count": 3688,
      "max": [
        1.0,
        1.0,
        1.0
      ],
      "min": [
        -1.0,
        -1.0,
        -1.0
      ],
      "type": "VEC3"
    },
    {
      "bufferView": 3,
      "byteOffset": 3584,
      "componentType": 5126,
      "count": 3688,
      "max": [
        1.0,
        1.0,
        0.9169701933860779,
        1.0
      ],
      "min": [
        -1.0,
        -1.0,
        -1.0,
        -1.0
      ],
      "type": "VEC4"
    },
    {
      "bufferView": 1,
      "byteOffset": 7168,
      "componentType": 5126,
      "count": 3688,
      "max": [
        0.9958330988883972,
        0.9521920084953308
      ],
      "min": [
        0.004166970960795879,
        0.004166964441537857
      ],
      "type": "VEC2"
    },
    {
      "bufferView": 1,
      "byteOffset": 36672,
      "componentType": 5126,
      "count": 3688,
      "max": [
        0.9958330988883972,
        0.9521920084953308
      ],
      "min": [
        0.004166970960795879,
        0.004166964441537857
      ],
      "type": "VEC2"
    },
    {
      "bufferView": 1,
      "byteOffset": 66176,
      "componentType": 5126,
      "count": 3688,
      "max": [
        0.9958330988883972,
        0.9521920084953308
      ],
      "min": [
        0.004166970960795879,
        0.004166964441537857
      ],
      "type": "VEC2"
    },
    {
      "bufferView": 1,
      "byteOffset": 95680,
      "componentType": 5126,
      "count": 3688,
      "max": [
        0.9958330988883972,
        0.9521920084953308
      ],
      "min": [
        0.004166970960795879,
        0.004166964441537857
      ],
      "type": "VEC2"
    },
    {
      "bufferView": 0,
      "byteOffset": 1488,
      "componentType": 5125,
      "count": 14868,
      "type": "SCALAR"
    },
    {
      "bufferView": 2,
      "byteOffset": 93888,
      "componentType": 5126,
      "count": 92,
      "max": [
        0.02315603941679001,
        0.009332813322544098,
        0.021670714020729065
      ],
      "min": [
        -0.023293137550354004,
        -0.027957379817962646,
        -0.01250188797712326
      ],
      "type": "VEC3"
    },
    {
      "bufferView": 2,
      "byteOffset": 94992,
      "componentType": 5126,
      "count": 92,
      "max": [
        1.0,
        1.0,
        0.9999776482582092
      ],
      "min": [
        -1.0,
        -1.0,
        -1.0
      ],
      "type": "VEC3"
    },
    {
      "bufferView": 3,
      "byteOffset": 62592,
      "componentType": 5126,
      "count": 92,
      "max": [
        0.023889031261205673,
        1.0,
        1.0,
        1.0
      ],
      "min": [
        -0.02388801984488964,
        -0.996191143989563,
        -1.0,
        1.0
      ],
      "type": "VEC4"
    },
    {
      "bufferView": 1,
      "byteOffset": 125184,
      "componentType": 5126,
      "count": 92,
      "max": [
        0.9971204996109009,
        0.9711510539054871
      ],
      "min": [
        0.0028794333338737488,
        0.002879418432712555
      ],
      "type": "VEC2"
    },
    {
      "bufferView": 1,
      "byteOffset": 125920,
      "componentType": 5126,
      "count": 92,
      "max": [
        0.9971204996109009,
        0.9711510539054871
      ],
      "min": [
        0.0028794333338737488,
        0.002879418432712555
      ],
      "type": "VEC2"
    },
    {
      "bufferView": 1,
      "byteOffset": 126656,
      "componentType": 5126,
      "count": 92,
      "max": [
        0.9971204996109009,
        0.9711510539054871
      ],
      "min": [
        0.0028794333338737488,
        0.002879418432712555
      ],
      "type": "VEC2"
    },
    {
      "bufferView": 1,
      "byteOffset": 127392,
      "componentType": 5126,
      "count": 92,
      "max": [
        0.9971204996109009,
        0.9711510539054871
      ],
      "min": [
        0.0028794333338737488,
        0.002879418432712555
      ],
      "type": "VEC2"
    },
    {
      "bufferView": 0,
      "byteOffset": 60960,
      "componentType": 5125,
      "count": 144,
      "type": "SCALAR"
    },
    {
      "bufferView": 2,
      "byteOffset": 96096,
      "componentType": 5126,
      "count": 848,
      "max": [
        0.007252886891365051,
        0.004654943943023682,
        0.0027197524905204773
      ],
      "min": [
        -0.005693301558494568,
        -0.004654824733734131,
        -0.006590016186237335
      ],
      "type": "VEC3"
    },
    {
      "bufferView": 2,
      "byteOffset": 106272,
      "componentType": 5126,
      "count": 848,
      "max": [
        1.0,
        1.0,
        1.0
      ],
      "min": [
        -1.0,
        -1.0,
        -1.0
      ],
      "type": "VEC3"
    },
    {
      "bufferView": 3,
      "byteOffset": 64064,
      "componentType": 5126,
      "count": 848,
      "max": [
        1.0,
        1.0,
        0.7090524435043335,
        1.0
      ],
      "min": [
        -1.0,
        -1.0,
        -0.7090530395507813,
        1.0
      ],
      "type": "VEC4"
    },
    {
      "bufferView": 1,
      "byteOffset": 128128,
      "componentType": 5126,
      "count": 848,
      "max": [
        0.9965312480926514,
        0.9709725975990295
      ],
      "min": [
        0.003468819661065936,
        0.003468811511993408
      ],
      "type": "VEC2"
    },
    {
      "bufferView": 1,
      "byteOffset": 134912,
      "componentType": 5126,
      "count": 848,
      "max": [
        0.9965312480926514,
        0.9709725975990295
      ],
      "min": [
        0.003468819661065936,
        0.003468811511993408
      ],
      "type": "VEC2"
    },
    {
      "bufferView": 1,
      "byteOffset": 141696,
      "componentType": 5126,
      "count": 848,
      "max": [
        0.9965312480926514,
        0.9709725975990295
      ],
      "min": [
        0.003468819661065936,
        0.003468811511993408
      ],
      "type": "VEC2"
    },
    {
      "bufferView": 1,
      "byteOffset": 148480,
      "componentType": 5126,
      "count": 848,
      "max": [
        0.9965312480926514,
        0.9709725975990295
      ],
      "min": [
        0.003468819661065936,
        0.003468811511993408
      ],
      "type": "VEC2"
    },
    {
      "bufferView": 0,
      "byteOffset": 61536,
      "componentType": 5125,
      "count": 3552,
      "type": "SCALAR"
    },
    {
      "bufferView": 2,
      "byteOffset": 116448,
      "componentType": 5126,
      "count": 7012,
      "max": [
        0.049473538994789124,
        0.048721104860305786,
        0.07822448760271072
      ],
      "min": [
        -0.04971907660365105,
        -0.05047151446342468,
        -0.05127700790762901
      ],
      "type": "VEC3"
    },
    {
      "bufferView": 2,
      "byteOffset": 200592,
      "componentType": 5126,
      "count": 7012,
      "max": [
        1.0,
        1.0,
        1.0
      ],
      "min": [
        -1.0,
        -1.0,
        -1.0
      ],
      "type": "VEC3"
    },
    {
      "bufferView": 3,
      "byteOffset": 77632,
      "componentType": 5126,
      "count": 7012,
      "max": [
        1.0,
        1.0,
        1.0,
        1.0
      ],
      "min": [
        -1.0,
        -1.0,
        -1.0,
        -1.0
      ],
      "type": "VEC4"
    },
    {
      "bufferView": 1,
      "byteOffset": 155264,
      "componentType": 5126,
      "count": 7012,
      "max": [
        0.9917147159576416,
        0.99422287940979
      ],
      "min": [
        0.005777057725936174,
        0.005777058657258749
      ],
      "type": "VEC2"
    },
    {
      "bufferView": 1,
      "byteOffset": 211360,
      "componentType": 5126,
      "count": 7012,
      "max": [
        0.9917147159576416,
        0.99422287940979
      ],
      "min": [
        0.005777057725936174,
        0.005777058657258749
      ],
      "type": "VEC2"
    },
    {
      "bufferView": 1,
      "byteOffset": 267456,
      "componentType": 5126,
      "count": 7012,
      "max": [
        0.9917147159576416,
        0.99422287940979
      ],
      "min": [
        0.005777057725936174,
        0.005777058657258749
      ],
      "type": "VEC2"
    },
    {
      "bufferView": 1,
      "byteOffset": 323552,
      "componentType": 5126,
      "count": 7012,
      "max": [
        0.9917147159576416,
        0.99422287940979
      ],
      "min": [
        0.005777057725936174,
        0.005777058657258749
      ],
      "type": "VEC2"
    },
    {
      "bufferView": 0,
      "byteOffset": 75744,
      "componentType": 5125,
      "count": 29028,
      "type": "SCALAR"
    }
  ],
  "asset": {
    "extras": {
      "author": "Kelisei Ventura (https://sketchfab.com/frankestudios71)",
      "license": "CC-BY-4.0 (http://creativecommons.org/licenses/by/4.0/)",
      "source": "https://sketchfab.com/3d-models/office-set-lite-low-poly-ef6124dfbaf94365a76a6c1d613153d6",
      "title": "Office Set Lite Low-poly"
    },
    "generator": "Sketchfab-15.30.0",
    "version": "2.0"
  },
  "bufferViews": [
    {
      "buffer": 0,
      "byteLength": 191856,
      "name": "floatBufferViews",
      "target": 34963
    },
    {
      "buffer": 0,
      "byteLength": 379648,
      "byteOffset": 191856,
      "byteStride": 8,
      "name": "floatBufferViews",
      "target": 34962
    },
    {
      "buffer": 0,
      "byteLength": 284736,
      "byteOffset": 571504,
      "byteStride": 12,
      "name": "floatBufferViews",
      "target": 34962
    },
    {
      "buffer": 0,
      "byteLength": 189824,
      "byteOffset": 856240,
      "byteStride": 16,
      "name": "floatBufferViews",
      "target": 34962
    }
  ],
  "buffers": [
    {
      "byteLength": 1046064,
      "uri": "scene.bin"
    }
  ],
  "images": [
    {
      "uri": "textures/Table_baseColor.jpg"
    },
    {
      "uri": "textures/Table_metallicRoughness.jpg"
    },
    {
      "uri": "textures/Table_normal.jpg"
    },
    {
      "uri": "textures/material_baseColor.jpg"
    },
    {
      "uri": "textures/material_metallicRoughness.png"
    },
    {
      "uri": "textures/material_normal.jpg"
    },
    {
      "uri": "textures/Computer_baseColor.jpg"
    },
    {
      "uri": "textures/Computer_metallicRoughness.jpg"
    },
    {
      "uri": "textures/Computer_normal.jpg"
    },
    {
      "uri": "textures/material_3_baseColor.png"
    },
    {
      "uri": "textures/material_3_metallicRoughness.jpg"
    },
    {
      "uri": "textures/material_3_normal.jpg"
    },
    {
      "uri": "textures/Chair_baseColor.jpg"
    },
    {
      "uri": "textures/Chair_metallicRoughness.jpg"
    },
    {
      "uri": "textures/Chair_normal.jpg"
    }
  ],
  "materials": [
    {
      "doubleSided": true,
      "name": "Table",
      "normalTexture": {
        "index": 2
      },
      "pbrMetallicRoughness": {
        "baseColorTexture": {
          "index": 0
        },
        "metallicFactor": 0.0,
        "metallicRoughnessTexture": {
          "index": 1
        }
      }
    },
    {
      "doubleSided": true,
      "name": "material",
      "normalTexture": {
        "index": 5
      },
      "pbrMetallicRoughness": {
        "baseColorTexture": {
          "index": 3
        },
        "metallicRoughnessTexture": {
          "index": 4
        }
      }
    },
    {
      "doubleSided": true,
      "name": "Computer",
      "normalTexture": {
        "index": 8
      },
      "pbrMetallicRoughness": {
        "baseColorTexture": {
          "index": 6
        },
        "metallicRoughnessTexture": {
          "index": 7
        }
      }
    },
    {
      "doubleSided": true,
      "name": "material_3",
      "normalTexture": {
        "index": 11
      },
      "pbrMetallicRoughness": {
        "baseColorTexture": {
          "index": 9
        },
        "metallicRoughnessTexture": {
          "index": 10
        }
      }
    },
    {
      "doubleSided": true,
      "name": "Chair",
      "normalTexture": {
        "index": 14
      },
      "pbrMetallicRoughness": {
        "baseColorTexture": {
          "index": 12
        },
        "metallicRoughnessTexture": {
          "index": 13
        }
      }
    }
  ],
  "meshes": [
    {
      "name": "Cube.002_Table_0",
      "primitives": [
        {
          "attributes": {
            "NORMAL": 1,
            "POSITION": 0,
            "TANGENT": 2,
            "TEXCOORD_0": 3,
            "TEXCOORD_1": 4,
            "TEXCOORD_2": 5,
            "TEXCOORD_3": 6
          },
          "indices": 7,
          "material": 0,
          "mode": 4
        }
      ]
    },
    {
      "name": "Cube.004_Bin_0",
      "primitives": [
        {
          "attributes": {
            "NORMAL": 9,
            "POSITION": 8,
            "TANGENT": 10,
            "TEXCOORD_0": 11,
            "TEXCOORD_1": 12,
            "TEXCOORD_2": 13,
            "TEXCOORD_3": 14
          },
          "indices": 15,
          "material": 1,
          "mode": 4
        }
      ]
    },
    {
      "name": "Computer_Computer_0",
      "primitives": [
        {
          "attributes": {
            "NORMAL": 17,
            "POSITION": 16,
            "TANGENT": 18,
            "TEXCOORD_0": 19,
            "TEXCOORD_1": 20,
            "TEXCOORD_2": 21,
            "TEXCOORD_3": 22
          },
          "indices": 23,
          "material": 2,
          "mode": 4
        }
      ]
    },
    {
      "name": "Cylinder_Mug_0",
      "primitives": [
        {
          "attributes": {
            "NORMAL": 25,
            "POSITION": 24,
            "TANGENT": 26,
            "TEXCOORD_0": 27,
            "TEXCOORD_1": 28,
            "TEXCOORD_2": 29,
            "TEXCOORD_3": 30
          },
          "indices": 31,
          "material": 3,
          "mode": 4
        }
      ]
    },
    {
      "name": "Chair_Chair_0",
      "primitives": [
        {
          "attributes": {
            "NORMAL": 33,
            "POSITION": 32,
            "TANGENT": 34,
            "TEXCOORD_0": 35,
            "TEXCOORD_1": 36,
            "TEXCOORD_2": 37,
            "TEXCOORD_3": 38
          },
          "indices": 39,
          "material": 4,
          "mode": 4
        }
      ]
    }
  ],
  "nodes": [
    {
      "children": [
        1
      ],
      "matrix": [
        1.0,
        0.0,
        0.0,
        0.0,
        0.0,
        2.220446049250313e-16,
        -1.0,
        0.0,
        0.0,
        1.0,
        2.220446049250313e-16,
        0.0,
        0.0,
        0.0,
        0.0,
        1.0
      ],
      "name": "Sketchfab_model"
    },
    {
      "children": [
        2
      ],
      "matrix": [
        0.009999999776482582,
        0.0,
        0.0,
        0.0,
        0.0,
        0.0,
        0.009999999776482582,
        0.0,
        0.0,
        -0.009999999776482582,
        0.0,
        0.0,
        0.0,
        0.0,
        0.0,
        1.0
      ],
      "name": "57c93c6eb755484da1824a8b39b716e4.fbx"
    },
    {
      "children": [
        3,
        5,
        7,
        9,
        11
      ],
      "name": "RootNode"
    },
    {
      "children": [
        4
      ],
      "matrix": [
        100.0,
        0.0,
        0.0,
        0.0,
        0.0,
        -1.629206793918314e-05,
        -99.99999999999868,
        0.0,
        0.0,
        99.99999999999868,
        -1.629206793918314e-05,
        0.0,
        0.026799552142620087,
        6.094899654388428,
        0.0,
        1.0
      ],
      "name": "Cube.002"
    },
    {
      "mesh": 0,
      "name": "Cube.002_Table_0"
    },
    {
      "children": [
        6
      ],
      "matrix": [
        100.0,
        0.0,
        0.0,
        0.0,
        0.0,
        -1.629206793918314e-05,
        -99.99999999999868,
        0.0,
        0.0,
        99.99999999999868,
        -1.629206793918314e-05,
        0.0,
        16.487607955932617,
        0.6857374906539917,
        7.634819984436035,
        1.0
      ],
      "name": "Cube.004"
    },
    {
      "mesh": 1,
      "name": "Cube.004_Bin_0"
    },
    {
      "children": [
        8
      ],
      "matrix": [
        100.0,
        0.0,
        0.0,
        0.0,
        0.0,
        -1.629206793918314e-05,
        -99.99999999999868,
        0.0,
        0.0,
        99.99999999999868,
        -1.629206793918314e-05,
        0.0,
        10.997260093688965,
        11.578546524047852,
        7.341579437255859,
        1.0
      ],
      "name": "Computer"
    },
    {
      "mesh": 2,
      "name": "Computer_Computer_0"
    },
    {
      "children": [
        10
      ],
      "matrix": [
        100.0,
        0.0,
        0.0,
        0.0,
        0.0,
        -1.629206793918314e-05,
        -99.99999999999868,
        0.0,
        0.0,
        99.99999999999868,
        -1.629206793918314e-05,
        0.0,
        14.424360275268555,
        11.01827621459961,
        9.000005722045898,
        1.0
      ],
      "name": "Cylinder"
    },
    {
      "mesh": 3,
      "name": "Cylinder_Mug_0"
    },
    {
      "children": [
        12
      ],
      "matrix": [
        100.0,
        0.0,
        0.0,
        0.0,
        0.0,
        -1.629206793918314e-05,
        -99.99999999999868,
        0.0,
        0.0,
        99.99999999999868,
        -1.629206793918314e-05,
        0.0,
        11.00794792175293,
        5.154483318328857,
        14.110991477966309,
        1.0
      ],
      "name": "Chair"
    },
    {
      "mesh": 4,
      "name": "Chair_Chair_0"
    }
  ],
  "samplers": [
    {
      "magFilter": 9729,
      "minFilter": 9987,
      "wrapS": 10497,
      "wrapT": 10497
    }
  ],
  "scene": 0,
  "scenes": [
    {
      "name": "Sketchfab_Scene",
      "nodes": [
        0
      ]
    }
  ],
  "textures": [
    {
      "sampler": 0,
      "source": 0
    },
    {
      "sampler": 0,
      "source": 1
    },
    {
      "sampler": 0,
      "source": 2
    },
    {
      "sampler": 0,
      "source": 3
    },
    {
      "sampler": 0,
      "source": 4
    },
    {
      "sampler": 0,
      "source": 5
    },
    {
      "sampler": 0,
      "source": 6
    },
    {
      "sampler": 0,
      "source": 7
    },
    {
      "sampler": 0,
      "source": 8
    },
    {
      "sampler": 0,
      "source": 9
    },
    {
      "sampler": 0,
      "source": 10
    },
    {
      "sampler": 0,
      "source": 11
    },
    {
      "sampler": 0,
      "source": 12
    },
    {
      "sampler": 0,
      "source": 13
    },
    {
      "sampler": 0,
      "source": 14
    }
  ]
}
