{
  "accessors": [
    {
      "bufferView": 2,
      "componentType": 5126,
      "count": 419,
      "max": [
        0.051350001245737076,
        0.40689998865127563,
        0.4069100022315979
      ],
      "min": [
        0.03269999846816063,
        -0.4069100022315979,
        -0.40689998865127563
      ],
      "type": "VEC3"
    },
    {
      "bufferView": 2,
      "byteOffset": 5028,
      "componentType": 5126,
      "count": 419,
      "max": [
        1.0,
        0.9598677158355713,
        0.9646422266960144
      ],
      "min": [
        0.26225757598876953,
        -0.9598677158355713,
        -0.9646422266960144
      ],
      "type": "VEC3"
    },
    {
      "bufferView": 1,
      "componentType": 5126,
      "count": 419,
      "max": [
        0.9429100155830383,
        0.9405400156974792
      ],
      "min": [
        0.062380000948905945,
        0.05731000006198883
      ],
      "type": "VEC2"
    },
    {
      "bufferView": 0,
      "componentType": 5125,
      "count": 1968,
      "type": "SCALAR"
    },
    {
      "bufferView": 2,
      "byteOffset": 10056,
      "componentType": 5126,
      "count": 1901,
      "max": [
        0.0826599970459938,
        0.4449999928474426,
        0.4449999928474426
      ],
      "min": [
        -0.017909999936819077,
        -0.4449999928474426,
        -0.4449999928474426
      ],
      "type": "VEC3"
    },
    {
      "bufferView": 2,
      "byteOffset": 32868,
      "componentType": 5126,
      "count": 1901,
      "max": [
        0.9897540211677551,
        1.0,
        1.0
      ],
      "min": [
        -1.0,
        -1.0,
        -1.0
      ],
      "type": "VEC3"
    },
    {
      "bufferView": 3,
      "componentType": 5126,
      "count": 1901,
      "max": [
        0.15706445276737213,
        1.0,
        1.0,
        1.0
      ],
      "min": [
        -0.15590907633304596,
        -1.0,
        -1.0,
        1.0
      ],
      "type": "VEC4"
    },
    {
      "bufferView": 1,
      "byteOffset": 3352,
      "componentType": 5126,
      "count": 1901,
      "max": [
        1.2689599990844727,
        0.7143200039863586
      ],
      "min": [
        -1.2780799865722656,
        0.22397999465465546
      ],
      "type": "VEC2"
    },
    {
      "bufferView": 1,
      "byteOffset": 18560,
      "componentType": 5126,
      "count": 1901,
      "max": [
        1.2689599990844727,
        0.7143200039863586
      ],
      "min": [
        -1.2780799865722656,
        0.22397999465465546
      ],
      "type": "VEC2"
    },
    {
      "bufferView": 1,
      "byteOffset": 33768,
      "componentType": 5126,
      "count": 1901,
      "max": [
        1.2689599990844727,
        0.7143200039863586
      ],
      "min": [
        -1.2780799865722656,
        0.22397999465465546
      ],
      "type": "VEC2"
    },
    {
      "bufferView": 0,
      "byteOffset": 7872,
      "componentType": 5125,
      "count": 9120,
      "type": "SCALAR"
    },
    {
      "bufferView": 2,
      "byteOffset": 55680,
      "componentType": 5126,
      "count": 977,
      "max": [
        0.048020001500844955,
        0.15714000165462494,
        0.32253000140190125
      ],
      "min": [
        0.047770000994205475,
        -0.021040000021457672,
        -0.04778999835252762
      ],
      "type": "VEC3"
    },
    {
      "bufferView": 2,
      "byteOffset": 67404,
      "componentType": 5126,
      "count": 977,
      "max": [
        -0.9999483227729797,
        0.009229985997080803,
        0.0
      ],
      "min": [
        -1.0,
        0.0,
        -0.004269993398338556
      ],
      "type": "VEC3"
    },
    {
      "bufferView": 1,
      "byteOffset": 48976,
      "componentType": 5126,
      "count": 977,
      "max": [
        0.9257799983024597,
        0.6251199841499329
      ],
      "min": [
        0.0,
        0.0
      ],
      "type": "VEC2"
    },
    {
      "bufferView": 0,
      "byteOffset": 44352,
      "componentType": 5125,
      "count": 2592,
      "type": "SCALAR"
    },
    {
      "bufferView": 2,
      "byteOffset": 79128,
      "componentType": 5126,
      "count": 90,
      "max": [
        0.043060000985860825,
        0.12163999676704407,
        0.23614999651908875
      ],
      "min": [
        0.04016999900341034,
        -0.04320000112056732,
        -0.03215000033378601
      ],
      "type": "VEC3"
    },
    {
      "bufferView": 2,
      "byteOffset": 80208,
      "componentType": 5126,
      "count": 90,
      "max": [
        1.0,
        -0.0,
        -0.0
      ],
      "min": [
        1.0,
        -0.0,
        -0.0
      ],
      "type": "VEC3"
    },
    {
      "bufferView": 1,
      "byteOffset": 56792,
      "componentType": 5126,
      "count": 90,
      "max": [
        0.2700600028038025,
        0.43276000022888184
      ],
      "min": [
        0.046059999614953995,
        0.33812999725341797
      ],
      "type": "VEC2"
    },
    {
      "bufferView": 0,
      "byteOffset": 54720,
      "componentType": 5125,
      "count": 384,
      "type": "SCALAR"
    },
    {
      "bufferView": 2,
      "byteOffset": 81288,
      "componentType": 5126,
      "count": 1214,
      "max": [
        0.08453000336885452,
        0.3940500020980835,
        0.3988099992275238
      ],
      "min": [
        0.06241000071167946,
        -0.40310999751091003,
        -0.3983500003814697
      ],
      "type": "VEC3"
    },
    {
      "bufferView": 2,
      "byteOffset": 95856,
      "componentType": 5126,
      "count": 1214,
      "max": [
        1.0,
        0.9999452233314514,
        0.9999452233314514
      ],
      "min": [
        -1.0,
        -0.9999452233314514,
        -0.9999452233314514
      ],
      "type": "VEC3"
    },
    {
      "bufferView": 1,
      "byteOffset": 57512,
      "componentType": 5126,
      "count": 1214,
      "max": [
        0.9429100155830383,
        0.9391899704933167
      ],
      "min": [
        0.062380000948905945,
        0.05866000056266785
      ],
      "type": "VEC2"
    },
    {
      "bufferView": 0,
      "byteOffset": 56256,
      "componentType": 5125,
      "count": 3648,
      "type": "SCALAR"
    }
  ],
  "asset": {
    "extras": {
      "author": "3DHaupt (https://sketchfab.com/dennish2010)",
      "license": "CC-BY-NC-4.0 (http://creativecommons.org/licenses/by-nc/4.0/)",
      "source": "https://sketchfab.com/3d-models/bge-clock-3Onrg4AiDhuwWq4FCrxjabAHkT",
      "title": "BGE Clock"
    },
    "generator": "Sketchfab-15.27.0",
    "version": "2.0"
  },
  "bufferViews": [
    {
      "buffer": 0,
      "byteLength": 70848,
      "name": "floatBufferViews",
      "target": 34963
    },
    {
      "buffer": 0,
      "byteLength": 67224,
      "byteOffset": 70848,
      "byteStride": 8,
      "name": "floatBufferViews",
      "target": 34962
    },
    {
      "buffer": 0,
      "byteLength": 110424,
      "byteOffset": 138072,
      "byteStride": 12,
      "name": "floatBufferViews",
      "target": 34962
    },
    {
      "buffer": 0,
      "byteLength": 30416,
      "byteOffset": 248496,
      "byteStride": 16,
      "name": "floatBufferViews",
      "target": 34962
    }
  ],
  "buffers": [
    {
      "byteLength": 278912,
      "uri": "scene.bin"
    }
  ],
  "images": [
    {
      "uri": "textures/Uhr_2.001_baseColor.png"
    },
    {
      "uri": "textures/Uhr_2_baseColor.jpg"
    },
    {
      "uri": "textures/Uhr_2_Rand_baseColor.jpg"
    },
    {
      "uri": "textures/Uhr_2_Rand_normal.jpg"
    }
  ],
  "materials": [
    {
      "alphaMode": "BLEND",
      "doubleSided": true,
      "name": "Uhr_2.001",
      "pbrMetallicRoughness": {
        "baseColorFactor": [
          0.58,
          0.58,
          0.58,
          0.11
        ],
        "baseColorTexture": {
          "index": 0
        },
        "metallicFactor": 0.0,
        "roughnessFactor": 0.4
      }
    },
    {
      "doubleSided": true,
      "name": "Uhr_2",
      "pbrMetallicRoughness": {
        "baseColorTexture": {
          "index": 1
        },
        "metallicFactor": 0.0,
        "roughnessFactor": 0.4
      }
    },
    {
      "doubleSided": true,
      "name": "Uhr_2_Rand",
      "normalTexture": {
        "index": 3,
        "scale": 0.039
      },
      "pbrMetallicRoughness": {
        "baseColorFactor": [
          0.99,
          0.99,
          0.99,
          1.0
        ],
        "baseColorTexture": {
          "index": 2
        },
        "metallicFactor": 0.0,
        "roughnessFactor": 0.4
      }
    },
    {
      "doubleSided": true,
      "name": "Sec_Zeiger",
      "pbrMetallicRoughness": {
        "baseColorFactor": [
          0.9882352941,
          0.0117647059,
          0.0117647059,
          1.0
        ],
        "metallicFactor": 0.0,
        "roughnessFactor": 0.4
      }
    },
    {
      "doubleSided": true,
      "name": "min_Zeiger",
      "pbrMetallicRoughness": {
        "baseColorFactor": [
          0.0,
          0.0,
          0.0,
          1.0
        ],
        "metallicFactor": 0.0,
        "roughnessFactor": 0.4
      }
    }
  ],
  "meshes": [
    {
      "name": "Circle.016_0",
      "primitives": [
        {
          "attributes": {
            "NORMAL": 1,
            "POSITION": 0,
            "TEXCOORD_0": 2
          },
          "indices": 3,
          "material": 1,
          "mode": 4
        }
      ]
    },
    {
      "name": "Circle.016_1",
      "primitives": [
        {
          "attributes": {
            "NORMAL": 5,
            "POSITION": 4,
            "TANGENT": 6,
            "TEXCOORD_0": 7,
            "TEXCOORD_1": 8,
            "TEXCOORD_2": 9
          },
          "indices": 10,
          "material": 2,
          "mode": 4
        }
      ]
    },
    {
      "name": "Circle.016_2",
      "primitives": [
        {
          "attributes": {
            "NORMAL": 12,
            "POSITION": 11,
            "TEXCOORD_0": 13
          },
          "indices": 14,
          "material": 3,
          "mode": 4
        }
      ]
    },
    {
      "name": "Circle.016_3",
      "primitives": [
        {
          "attributes": {
            "NORMAL": 16,
            "POSITION": 15,
            "TEXCOORD_0": 17
          },
          "indices": 18,
          "material": 4,
          "mode": 4
        }
      ]
    },
    {
      "name": "Circle.000_0",
      "primitives": [
        {
          "attributes": {
            "NORMAL": 20,
            "POSITION": 19,
            "TEXCOORD_0": 21
          },
          "indices": 22,
          "material": 0,
          "mode": 4
        }
      ]
    }
  ],
  "nodes": [
    {
      "children": [
        1
      ],
      "matrix": [
        1.0,
        0.0,
        0.0,
        0.0,
        0.0,
        2.220446049250313e-16,
        -1.0,
        0.0,
        0.0,
        1.0,
        2.220446049250313e-16,
        0.0,
        0.0,
        0.0,
        0.0,
        1.0
      ],
      "name": "Sketchfab_model"
    },
    {
      "children": [
        2,
        7
      ],
      "name": "Root"
    },
    {
      "children": [
        3,
        4,
        5,
        6
      ],
      "matrix": [
        1.0,
        0.0,
        -0.0,
        0.0,
        0.0,
        0.99877,
        0.04953000000000001,
        0.0,
        0.0,
        -0.04953000000000001,
        0.99877,
        0.0,
        0.0,
        0.0,
        0.0,
        1.0
      ],
      "name": "Circle.016"
    },
    {
      "mesh": 0,
      "name": "Circle.016_0"
    },
    {
      "mesh": 1,
      "name": "Circle.016_1"
    },
    {
      "mesh": 2,
      "name": "Circle.016_2"
    },
    {
      "mesh": 3,
      "name": "Circle.016_3"
    },
    {
      "children": [
        8
      ],
      "matrix": [
        1.0159099999999999,
        0.0,
        -0.0,
        0.0,
        0.0,
        1.01466,
        0.05032000000000001,
        0.0,
        0.0,
        -0.05032000000000001,
        1.01466,
        0.0,
        0.0,
        0.0,
        0.0,
        1.0
      ],
      "name": "Circle.000"
    },
    {
      "mesh": 4,
      "name": "Circle.000_0"
    }
  ],
  "samplers": [
    {
      "magFilter": 9729,
      "minFilter": 9987,
      "wrapS": 10497,
      "wrapT": 10497
    }
  ],
  "scene": 0,
  "scenes": [
    {
      "name": "Sketchfab_Scene",
      "nodes": [
        0
      ]
    }
  ],
  "textures": [
    {
      "sampler": 0,
      "source": 0
    },
    {
      "sampler": 0,
      "source": 1
    },
    {
      "sampler": 0,
      "source": 2
    },
    {
      "sampler": 0,
      "source": 3
    }
  ]
}
