{
	"asset":{
		"generator":"Khronos glTF Blender I/O v4.0.44",
		"version":"2.0"
	},
	"scene":0,
	"scenes":[
		{
			"name":"Scene",
			"nodes":[
				2
			]
		}
	],
	"nodes":[
		{
			"mesh":0,
			"name":"Object_2"
		},
		{
			"children":[
				0
			],
			"name":"wall2.obj.cleaner.materialmerger.gles"
		},
		{
			"children":[
				1
			],
			"name":"Sketchfab_model",
			"rotation":[
				0.999931275844574,
				0,
				0,
				0.01172607485204935
			],
			"translation":[
				0,
				-10.446039199829102,
				12.093353271484375
			]
		}
	],
	"materials":[
		{
			"doubleSided":true,
			"name":"wall2_Material_u1_v1",
			"pbrMetallicRoughness":{
				"baseColorTexture":{
					"index":0
				},
				"metallicFactor":0,
				"metallicRoughnessTexture":{
					"index":1
				}
			}
		}
	],
	"meshes":[
		{
			"name":"Object_0",
			"primitives":[
				{
					"attributes":{
						"POSITION":0,
						"NORMAL":1,
						"TEXCOORD_0":2
					},
					"indices":3,
					"material":0
				}
			]
		}
	],
	"textures":[
		{
			"sampler":0,
			"source":0
		},
		{
			"sampler":0,
			"source":1
		}
	],
	"images":[
		{
			"mimeType":"image/jpeg",
			"name":"wall2_Material_u1_v1_baseColor",
			"uri":"textures/wall2_Material_u1_v1_baseColor.jpg"
		},
		{
			"mimeType":"image/png",
			"name":"wall2_Material_u1_v1_metallicRoughness",
			"uri":"textures/wall2_Material_u1_v1_metallicRoughness.png"
		}
	],
	"accessors":[
		{
			"bufferView":0,
			"componentType":5126,
			"count":18245,
			"max":[
				12.596137046813965,
				-2.3744711875915527,
				1.8965644836425781
			],
			"min":[
				-12.65791130065918,
				-19.92284393310547,
				-0.5295982360839844
			],
			"type":"VEC3"
		},
		{
			"bufferView":1,
			"componentType":5126,
			"count":18245,
			"type":"VEC3"
		},
		{
			"bufferView":2,
			"componentType":5126,
			"count":18245,
			"type":"VEC2"
		},
		{
			"bufferView":3,
			"componentType":5123,
			"count":60000,
			"type":"SCALAR"
		}
	],
	"bufferViews":[
		{
			"buffer":0,
			"byteLength":218940,
			"byteOffset":0,
			"target":34962
		},
		{
			"buffer":0,
			"byteLength":218940,
			"byteOffset":218940,
			"target":34962
		},
		{
			"buffer":0,
			"byteLength":145960,
			"byteOffset":437880,
			"target":34962
		},
		{
			"buffer":0,
			"byteLength":120000,
			"byteOffset":583840,
			"target":34963
		}
	],
	"samplers":[
		{
			"magFilter":9729,
			"minFilter":9987
		}
	],
	"buffers":[
		{
			"byteLength":703840,
			"uri":"brick-wall.bin"
		}
	]
}
