{
  "accessors": [
    {
      "bufferView": 2,
      "componentType": 5126,
      "count": 200,
      "max": [
        1.0922040939331055,
        0.5137895345687866,
        1.3768041133880615
      ],
      "min": [
        -1.0908507108688354,
        -0.33334028720855713,
        -1.0
      ],
      "type": "VEC3"
    },
    {
      "bufferView": 2,
      "byteOffset": 2400,
      "componentType": 5126,
      "count": 200,
      "max": [
        1.0,
        1.0,
        1.0
      ],
      "min": [
        -1.0,
        -1.0,
        -1.0
      ],
      "type": "VEC3"
    },
    {
      "bufferView": 3,
      "componentType": 5126,
      "count": 200,
      "max": [
        1.0,
        1.0,
        3.4758977562887594e-07,
        1.0
      ],
      "min": [
        -1.0,
        -1.0,
        -1.0,
        1.0
      ],
      "type": "VEC4"
    },
    {
      "bufferView": 1,
      "componentType": 5126,
      "count": 200,
      "max": [
        0.9515992403030396,
        1.0
      ],
      "min": [
        -2.4901158912626897e-09,
        -1.6908895617007147e-08
      ],
      "type": "VEC2"
    },
    {
      "bufferView": 0,
      "componentType": 5125,
      "count": 501,
      "type": "SCALAR"
    },
    {
      "bufferView": 2,
      "byteOffset": 4800,
      "componentType": 5126,
      "count": 775,
      "max": [
        0.01203775405883789,
        0.11254274845123291,
        0.005702899303287268
      ],
      "min": [
        -0.49571385979652405,
        -0.0734761580824852,
        -0.08193093538284302
      ],
      "type": "VEC3"
    },
    {
      "bufferView": 2,
      "byteOffset": 14100,
      "componentType": 5126,
      "count": 775,
      "max": [
        0.9999988079071045,
        1.0,
        1.0
      ],
      "min": [
        -0.9999665021896362,
        -1.0,
        -1.0
      ],
      "type": "VEC3"
    },
    {
      "bufferView": 1,
      "byteOffset": 1600,
      "componentType": 5126,
      "count": 775,
      "max": [
        0.5080353021621704,
        0.6125427484512329
      ],
      "min": [
        0.16910618543624878,
        0.42233553528785706
      ],
      "type": "VEC2"
    },
    {
      "bufferView": 0,
      "byteOffset": 2004,
      "componentType": 5125,
      "count": 1509,
      "type": "SCALAR"
    },
    {
      "bufferView": 2,
      "byteOffset": 23400,
      "componentType": 5126,
      "count": 701,
      "max": [
        0.23835894465446472,
        0.09341508150100708,
        0.054956287145614624
      ],
      "min": [
        -0.2498105764389038,
        -0.09248358011245728,
        -0.05884108692407608
      ],
      "type": "VEC3"
    },
    {
      "bufferView": 2,
      "byteOffset": 31812,
      "componentType": 5126,
      "count": 701,
      "max": [
        0.9999988079071045,
        1.0,
        1.0
      ],
      "min": [
        -1.0,
        -1.0,
        -1.0
      ],
      "type": "VEC3"
    },
    {
      "bufferView": 1,
      "byteOffset": 7800,
      "componentType": 5126,
      "count": 701,
      "max": [
        0.4871111214160919,
        0.8211675882339478
      ],
      "min": [
        0.16915962100028992,
        0.6383441090583801
      ],
      "type": "VEC2"
    },
    {
      "bufferView": 0,
      "byteOffset": 8040,
      "componentType": 5125,
      "count": 1296,
      "type": "SCALAR"
    },
    {
      "bufferView": 2,
      "byteOffset": 40224,
      "componentType": 5126,
      "count": 792,
      "max": [
        0.22048264741897583,
        0.08803966641426086,
        0.040715593844652176
      ],
      "min": [
        -0.2139434516429901,
        -0.07620108127593994,
        -0.05331150442361832
      ],
      "type": "VEC3"
    },
    {
      "bufferView": 2,
      "byteOffset": 49728,
      "componentType": 5126,
      "count": 792,
      "max": [
        1.0,
        1.0,
        1.0
      ],
      "min": [
        -0.9999966621398926,
        -1.0,
        -1.0
      ],
      "type": "VEC3"
    },
    {
      "bufferView": 1,
      "byteOffset": 13408,
      "componentType": 5126,
      "count": 792,
      "max": [
        0.470710813999176,
        0.3932894766330719
      ],
      "min": [
        0.18072721362113953,
        0.21919965744018555
      ],
      "type": "VEC2"
    },
    {
      "bufferView": 0,
      "byteOffset": 13224,
      "componentType": 5125,
      "count": 1518,
      "type": "SCALAR"
    }
  ],
  "asset": {
    "extras": {
      "author": "FractalSpace (https://sketchfab.com/fractalspace)",
      "license": "CC-BY-4.0 (http://creativecommons.org/licenses/by/4.0/)",
      "source": "https://sketchfab.com/3d-models/bookshelf-e271b784fb9449b78771e21518368ba0",
      "title": "Bookshelf"
    },
    "generator": "Sketchfab-15.77.0",
    "version": "2.0"
  },
  "bufferViews": [
    {
      "buffer": 0,
      "byteLength": 19296,
      "name": "floatBufferViews",
      "target": 34963
    },
    {
      "buffer": 0,
      "byteLength": 19744,
      "byteOffset": 19296,
      "byteStride": 8,
      "name": "floatBufferViews",
      "target": 34962
    },
    {
      "buffer": 0,
      "byteLength": 59232,
      "byteOffset": 39040,
      "byteStride": 12,
      "name": "floatBufferViews",
      "target": 34962
    },
    {
      "buffer": 0,
      "byteLength": 3200,
      "byteOffset": 98272,
      "byteStride": 16,
      "name": "floatBufferViews",
      "target": 34962
    }
  ],
  "buffers": [
    {
      "byteLength": 101472,
      "uri": "scene.bin"
    }
  ],
  "images": [
    {
      "uri": "textures/Shelf__0_baseColor.jpg"
    },
    {
      "uri": "textures/Shelf__0_metallicRoughness.png"
    },
    {
      "uri": "textures/Shelf__0_normal.jpg"
    },
    {
      "uri": "textures/Books.001_baseColor.jpeg"
    }
  ],
  "materials": [
    {
      "doubleSided": true,
      "name": "Shelf__0",
      "normalTexture": {
        "index": 2
      },
      "pbrMetallicRoughness": {
        "baseColorTexture": {
          "index": 0
        },
        "metallicRoughnessTexture": {
          "index": 1
        }
      }
    },
    {
      "doubleSided": true,
      "name": "Books.001",
      "pbrMetallicRoughness": {
        "baseColorTexture": {
          "index": 3
        },
        "metallicFactor": 0.0,
        "roughnessFactor": 0.8211145618000169
      }
    }
  ],
  "meshes": [
    {
      "name": "Shelf__0",
      "primitives": [
        {
          "attributes": {
            "NORMAL": 1,
            "POSITION": 0,
            "TANGENT": 2,
            "TEXCOORD_0": 3
          },
          "indices": 4,
          "material": 0,
          "mode": 4
        }
      ]
    },
    {
      "name": "Row 1_Books.001_0",
      "primitives": [
        {
          "attributes": {
            "NORMAL": 6,
            "POSITION": 5,
            "TEXCOORD_0": 7
          },
          "indices": 8,
          "material": 1,
          "mode": 4
        }
      ]
    },
    {
      "name": "Row 2_Books.001_0",
      "primitives": [
        {
          "attributes": {
            "NORMAL": 10,
            "POSITION": 9,
            "TEXCOORD_0": 11
          },
          "indices": 12,
          "material": 1,
          "mode": 4
        }
      ]
    },
    {
      "name": "Row 3_Books.001_0",
      "primitives": [
        {
          "attributes": {
            "NORMAL": 14,
            "POSITION": 13,
            "TEXCOORD_0": 15
          },
          "indices": 16,
          "material": 1,
          "mode": 4
        }
      ]
    }
  ],
  "nodes": [
    {
      "children": [
        1
      ],
      "matrix": [
        1.0,
        0.0,
        0.0,
        0.0,
        0.0,
        2.220446049250313e-16,
        -1.0,
        0.0,
        0.0,
        1.0,
        2.220446049250313e-16,
        0.0,
        0.0,
        0.0,
        0.0,
        1.0
      ],
      "name": "Sketchfab_model"
    },
    {
      "children": [
        2
      ],
      "matrix": [
        0.009999999776482582,
        0.0,
        0.0,
        0.0,
        0.0,
        0.0,
        0.009999999776482582,
        0.0,
        0.0,
        -0.009999999776482582,
        0.0,
        0.0,
        0.0,
        0.0,
        0.0,
        1.0
      ],
      "name": "7927023dae5b4c3b90aacff1c6e55861.fbx"
    },
    {
      "children": [
        3,
        5,
        7,
        9
      ],
      "name": "RootNode"
    },
    {
      "children": [
        4
      ],
      "matrix": [
        82.2368392944336,
        0.0,
        0.0,
        0.0,
        0.0,
        -1.629206793918314e-05,
        -99.99999999999868,
        0.0,
        0.0,
        99.99999999999868,
        -1.629206793918314e-05,
        0.0,
        0.0,
        100.0,
        0.0,
        1.0
      ],
      "name": "Shelf"
    },
    {
      "mesh": 0,
      "name": "Shelf__0"
    },
    {
      "children": [
        6
      ],
      "matrix": [
        314.0376281738281,
        0.0,
        0.0,
        0.0,
        0.0,
        314.0376281738278,
        1.3727020701752432e-05,
        0.0,
        0.0,
        -1.3727020701752432e-05,
        314.0376281738278,
        0.0,
        75.37742614746094,
        45.2454948425293,
        32.143463134765625,
        1.0
      ],
      "name": "Row 1"
    },
    {
      "mesh": 1,
      "name": "Row 1_Books.001_0"
    },
    {
      "children": [
        8
      ],
      "matrix": [
        320.98828125,
        0.0,
        0.0,
        0.0,
        0.0,
        295.81109619140597,
        1.293031473608027e-05,
        0.0,
        0.0,
        -1.6428940229309204e-05,
        375.8503112792965,
        0.0,
        2.513974189758301,
        122.28317260742188,
        15.90522575378418,
        1.0
      ],
      "name": "Row 2"
    },
    {
      "mesh": 2,
      "name": "Row 2_Books.001_0"
    },
    {
      "children": [
        10
      ],
      "matrix": [
        365.1329345703125,
        0.0,
        0.0,
        0.0,
        0.0,
        340.99401855468716,
        1.4905321948499061e-05,
        0.0,
        0.0,
        -1.4905321948499061e-05,
        340.99401855468716,
        0.0,
        -1.8638033866882324,
        191.76742553710938,
        17.422204971313477,
        1.0
      ],
      "name": "Row 3"
    },
    {
      "mesh": 3,
      "name": "Row 3_Books.001_0"
    }
  ],
  "samplers": [
    {
      "magFilter": 9729,
      "minFilter": 9987,
      "wrapS": 10497,
      "wrapT": 10497
    },
    {
      "magFilter": 9729,
      "minFilter": 9987,
      "wrapS": 33071,
      "wrapT": 33071
    }
  ],
  "scene": 0,
  "scenes": [
    {
      "name": "Sketchfab_Scene",
      "nodes": [
        0
      ]
    }
  ],
  "textures": [
    {
      "sampler": 0,
      "source": 0
    },
    {
      "sampler": 0,
      "source": 1
    },
    {
      "sampler": 0,
      "source": 2
    },
    {
      "sampler": 1,
      "source": 3
    }
  ]
}
