{
	"asset":{
		"generator":"Khronos glTF Blender I/O v4.0.44",
		"version":"2.0"
	},
	"scene":0,
	"scenes":[
		{
			"name":"Scene",
			"nodes":[
				20
			]
		}
	],
	"nodes":[
		{
			"name":"Object_5",
			"translation":[
				0,
				0,
				-3.814697265625e-06
			]
		},
		{
			"children":[
				0
			],
			"name":"Object_4",
			"rotation":[
				0.70710688829422,
				0,
				0,
				0.7071066498756409
			],
			"translation":[
				0,
				-2.86102294921875e-06,
				0
			]
		},
		{
			"children":[
				1
			],
			"name":"directionalLight1",
			"rotation":[
				0.2714870870113373,
				0.8320788145065308,
				-0.4334060847759247,
				0.21470634639263153
			],
			"scale":[
				8.431600570678711,
				1.0289169549942017,
				5.687514305114746
			],
			"translation":[
				21.913496017456055,
				35.08723068237305,
				-35.472408294677734
			]
		},
		{
			"name":"Object_11"
		},
		{
			"children":[
				3
			],
			"name":"Object_10",
			"rotation":[
				0.7071068286895752,
				0,
				0,
				0.7071068286895752
			]
		},
		{
			"children":[
				4
			],
			"name":"directionalLight2",
			"rotation":[
				-0.19411495327949524,
				0.17360249161720276,
				-0.5134702920913696,
				0.8176367878913879
			],
			"scale":[
				8.431597709655762,
				1.028916835784912,
				5.687512397766113
			],
			"translation":[
				32.40209197998047,
				21.717905044555664,
				-1.595986247062683
			]
		},
		{
			"mesh":0,
			"name":"directionalLight3_black_0"
		},
		{
			"mesh":1,
			"name":"directionalLight3_dark_wood_0"
		},
		{
			"mesh":2,
			"name":"directionalLight3_glass_0"
		},
		{
			"mesh":3,
			"name":"directionalLight3_grey_wood_0"
		},
		{
			"mesh":4,
			"name":"directionalLight3_lambert1_0"
		},
		{
			"mesh":5,
			"name":"directionalLight3_light_wood_0"
		},
		{
			"mesh":6,
			"name":"directionalLight3_metall_0"
		},
		{
			"mesh":7,
			"name":"directionalLight3_switch_button_0"
		},
		{
			"mesh":8,
			"name":"directionalLight3_white_0"
		},
		{
			"children":[
				6,
				7,
				8,
				9,
				10,
				11,
				12,
				13,
				14
			],
			"name":"directionalLight3"
		},
		{
			"name":"polySurface160"
		},
		{
			"children":[
				16
			],
			"name":"pPlane1"
		},
		{
			"children":[
				2,
				5,
				15,
				17
			],
			"name":"RootNode"
		},
		{
			"children":[
				18
			],
			"name":"01f0d0af697c457985363f052d072b62.fbx",
			"rotation":[
				0.70710688829422,
				0,
				0,
				0.7071066498756409
			]
		},
		{
			"children":[
				19
			],
			"name":"Sketchfab_model",
			"rotation":[
				-0.70710688829422,
				0,
				0,
				0.7071066498756409
			],
			"scale":[
				0.04933227598667145,
				0.049332283437252045,
				0.049332283437252045
			]
		}
	],
	"materials":[
		{
			"doubleSided":true,
			"name":"black",
			"pbrMetallicRoughness":{
				"baseColorFactor":[
					0.01119999960064888,
					0.01119999960064888,
					0.01119999960064888,
					1
				],
				"metallicFactor":0,
				"roughnessFactor":0.6000000238418579
			}
		},
		{
			"doubleSided":true,
			"name":"material_0",
			"pbrMetallicRoughness":{
				"baseColorFactor":[
					0.041600000113248825,
					0.03501752018928528,
					0.021382400766015053,
					1
				],
				"metallicFactor":0,
				"roughnessFactor":0.6000000238418579
			}
		},
		{
			"doubleSided":true,
			"name":"glass",
			"pbrMetallicRoughness":{
				"baseColorFactor":[
					0.49350640177726746,
					0.49350640177726746,
					0.49350640177726746,
					1
				],
				"metallicFactor":0,
				"roughnessFactor":0.6000000238418579
			}
		},
		{
			"doubleSided":true,
			"name":"grey_wood",
			"pbrMetallicRoughness":{
				"baseColorFactor":[
					0.09015999734401703,
					0.0851999968290329,
					0.07487999647855759,
					1
				],
				"metallicFactor":0,
				"roughnessFactor":0.6000000238418579
			}
		},
		{
			"doubleSided":true,
			"name":"lambert1",
			"pbrMetallicRoughness":{
				"baseColorFactor":[
					0.4000000059604645,
					0.4000000059604645,
					0.4000000059604645,
					1
				],
				"metallicFactor":0,
				"roughnessFactor":0.6000000238418579
			}
		},
		{
			"doubleSided":true,
			"name":"light_wood",
			"pbrMetallicRoughness":{
				"baseColorFactor":[
					0.23839999735355377,
					0.21270319819450378,
					0.15948960185050964,
					1
				],
				"metallicFactor":0,
				"roughnessFactor":0.6000000238418579
			}
		},
		{
			"doubleSided":true,
			"name":"metall",
			"pbrMetallicRoughness":{
				"baseColorFactor":[
					0.2545455992221832,
					0.2545455992221832,
					0.2545455992221832,
					1
				],
				"metallicFactor":0,
				"roughnessFactor":0.6000000238418579
			}
		},
		{
			"doubleSided":true,
			"emissiveFactor":[
				0.064935103058815,
				0.064935103058815,
				0.064935103058815
			],
			"name":"switch_button",
			"pbrMetallicRoughness":{
				"baseColorFactor":[
					0.4000000059604645,
					0.4000000059604645,
					0.4000000059604645,
					1
				],
				"metallicFactor":0,
				"roughnessFactor":0.6000000238418579
			}
		},
		{
			"doubleSided":true,
			"name":"white",
			"pbrMetallicRoughness":{
				"baseColorFactor":[
					0.6272000074386597,
					0.6272000074386597,
					0.6272000074386597,
					1
				],
				"metallicFactor":0,
				"roughnessFactor":0.6000000238418579
			}
		}
	],
	"meshes":[
		{
			"name":"directionalLight3_black_0",
			"primitives":[
				{
					"attributes":{
						"POSITION":0,
						"NORMAL":1,
						"TEXCOORD_0":2
					},
					"indices":3,
					"material":0
				}
			]
		},
		{
			"name":"directionalLight3_dark_wood_0",
			"primitives":[
				{
					"attributes":{
						"POSITION":4,
						"NORMAL":5,
						"TEXCOORD_0":6
					},
					"indices":7,
					"material":1
				}
			]
		},
		{
			"name":"directionalLight3_glass_0",
			"primitives":[
				{
					"attributes":{
						"POSITION":8,
						"NORMAL":9,
						"TEXCOORD_0":10
					},
					"indices":11,
					"material":2
				}
			]
		},
		{
			"name":"directionalLight3_grey_wood_0",
			"primitives":[
				{
					"attributes":{
						"POSITION":12,
						"NORMAL":13,
						"TEXCOORD_0":14
					},
					"indices":15,
					"material":3
				}
			]
		},
		{
			"name":"directionalLight3_lambert1_0",
			"primitives":[
				{
					"attributes":{
						"POSITION":16,
						"NORMAL":17,
						"TEXCOORD_0":18
					},
					"indices":19,
					"material":4
				}
			]
		},
		{
			"name":"directionalLight3_light_wood_0",
			"primitives":[
				{
					"attributes":{
						"POSITION":20,
						"NORMAL":21,
						"TEXCOORD_0":22
					},
					"indices":23,
					"material":5
				}
			]
		},
		{
			"name":"directionalLight3_metall_0",
			"primitives":[
				{
					"attributes":{
						"POSITION":24,
						"NORMAL":25,
						"TEXCOORD_0":26
					},
					"indices":27,
					"material":6
				}
			]
		},
		{
			"name":"directionalLight3_switch_button_0",
			"primitives":[
				{
					"attributes":{
						"POSITION":28,
						"NORMAL":29,
						"TEXCOORD_0":30
					},
					"indices":31,
					"material":7
				}
			]
		},
		{
			"name":"directionalLight3_white_0",
			"primitives":[
				{
					"attributes":{
						"POSITION":32,
						"NORMAL":33,
						"TEXCOORD_0":34
					},
					"indices":35,
					"material":8
				}
			]
		}
	],
	"accessors":[
		{
			"bufferView":0,
			"componentType":5126,
			"count":18548,
			"max":[
				-0.020588845014572144,
				25.335086822509766,
				13.512508392333984
			],
			"min":[
				-15.19907283782959,
				0.7447744011878967,
				-8.624756813049316
			],
			"type":"VEC3"
		},
		{
			"bufferView":1,
			"componentType":5126,
			"count":18548,
			"type":"VEC3"
		},
		{
			"bufferView":2,
			"componentType":5126,
			"count":18548,
			"type":"VEC2"
		},
		{
			"bufferView":3,
			"componentType":5123,
			"count":39558,
			"type":"SCALAR"
		},
		{
			"bufferView":4,
			"componentType":5126,
			"count":935,
			"max":[
				-5.1278791427612305,
				24.765186309814453,
				13.284475326538086
			],
			"min":[
				-15.262563705444336,
				3.704091787338257,
				-8.413613319396973
			],
			"type":"VEC3"
		},
		{
			"bufferView":5,
			"componentType":5126,
			"count":935,
			"type":"VEC3"
		},
		{
			"bufferView":6,
			"componentType":5126,
			"count":935,
			"type":"VEC2"
		},
		{
			"bufferView":7,
			"componentType":5123,
			"count":1404,
			"type":"SCALAR"
		},
		{
			"bufferView":8,
			"componentType":5126,
			"count":342,
			"max":[
				-12.798650741577148,
				31.191524505615234,
				-5.077157497406006
			],
			"min":[
				-15.67371940612793,
				14.961027145385742,
				-22.35222816467285
			],
			"type":"VEC3"
		},
		{
			"bufferView":9,
			"componentType":5126,
			"count":342,
			"type":"VEC3"
		},
		{
			"bufferView":10,
			"componentType":5126,
			"count":342,
			"type":"VEC2"
		},
		{
			"bufferView":11,
			"componentType":5123,
			"count":888,
			"type":"SCALAR"
		},
		{
			"bufferView":12,
			"componentType":5126,
			"count":497,
			"max":[
				-6.910268783569336,
				20.738508224487305,
				11.572833061218262
			],
			"min":[
				-14.808340072631836,
				2.4172682762145996,
				-7.842418193817139
			],
			"type":"VEC3"
		},
		{
			"bufferView":13,
			"componentType":5126,
			"count":497,
			"type":"VEC3"
		},
		{
			"bufferView":14,
			"componentType":5126,
			"count":497,
			"type":"VEC2"
		},
		{
			"bufferView":15,
			"componentType":5123,
			"count":1020,
			"type":"SCALAR"
		},
		{
			"bufferView":16,
			"componentType":5126,
			"count":1481,
			"max":[
				20.32109260559082,
				24.594032287597656,
				14.22311782836914
			],
			"min":[
				-16.94383430480957,
				2.508768320083618,
				-13.591377258300781
			],
			"type":"VEC3"
		},
		{
			"bufferView":17,
			"componentType":5126,
			"count":1481,
			"type":"VEC3"
		},
		{
			"bufferView":18,
			"componentType":5126,
			"count":1481,
			"type":"VEC2"
		},
		{
			"bufferView":19,
			"componentType":5123,
			"count":2640,
			"type":"SCALAR"
		},
		{
			"bufferView":20,
			"componentType":5126,
			"count":4531,
			"max":[
				13.75449275970459,
				35.34053421020508,
				13.418835639953613
			],
			"min":[
				-18.194496154785156,
				0.7724380493164062,
				-27.299959182739258
			],
			"type":"VEC3"
		},
		{
			"bufferView":21,
			"componentType":5126,
			"count":4531,
			"type":"VEC3"
		},
		{
			"bufferView":22,
			"componentType":5126,
			"count":4531,
			"type":"VEC2"
		},
		{
			"bufferView":23,
			"componentType":5123,
			"count":7962,
			"type":"SCALAR"
		},
		{
			"bufferView":24,
			"componentType":5126,
			"count":7911,
			"max":[
				19.932960510253906,
				32.814552307128906,
				13.840333938598633
			],
			"min":[
				-16.1228084564209,
				2.560410976409912,
				-25.7335262298584
			],
			"type":"VEC3"
		},
		{
			"bufferView":25,
			"componentType":5126,
			"count":7911,
			"type":"VEC3"
		},
		{
			"bufferView":26,
			"componentType":5126,
			"count":7911,
			"type":"VEC2"
		},
		{
			"bufferView":27,
			"componentType":5123,
			"count":18960,
			"type":"SCALAR"
		},
		{
			"bufferView":28,
			"componentType":5126,
			"count":105,
			"max":[
				-0.5199365615844727,
				24.674707412719727,
				12.764480590820312
			],
			"min":[
				-12.432262420654297,
				1.230195164680481,
				-2.040398120880127
			],
			"type":"VEC3"
		},
		{
			"bufferView":29,
			"componentType":5126,
			"count":105,
			"type":"VEC3"
		},
		{
			"bufferView":30,
			"componentType":5126,
			"count":105,
			"type":"VEC2"
		},
		{
			"bufferView":31,
			"componentType":5123,
			"count":156,
			"type":"SCALAR"
		},
		{
			"bufferView":32,
			"componentType":5126,
			"count":5954,
			"max":[
				23.053789138793945,
				39.78807830810547,
				15.527280807495117
			],
			"min":[
				-17.379592895507812,
				0.7534817457199097,
				-42.340171813964844
			],
			"type":"VEC3"
		},
		{
			"bufferView":33,
			"componentType":5126,
			"count":5954,
			"type":"VEC3"
		},
		{
			"bufferView":34,
			"componentType":5126,
			"count":5954,
			"type":"VEC2"
		},
		{
			"bufferView":35,
			"componentType":5123,
			"count":17904,
			"type":"SCALAR"
		}
	],
	"bufferViews":[
		{
			"buffer":0,
			"byteLength":222576,
			"byteOffset":0,
			"target":34962
		},
		{
			"buffer":0,
			"byteLength":222576,
			"byteOffset":222576,
			"target":34962
		},
		{
			"buffer":0,
			"byteLength":148384,
			"byteOffset":445152,
			"target":34962
		},
		{
			"buffer":0,
			"byteLength":79116,
			"byteOffset":593536,
			"target":34963
		},
		{
			"buffer":0,
			"byteLength":11220,
			"byteOffset":672652,
			"target":34962
		},
		{
			"buffer":0,
			"byteLength":11220,
			"byteOffset":683872,
			"target":34962
		},
		{
			"buffer":0,
			"byteLength":7480,
			"byteOffset":695092,
			"target":34962
		},
		{
			"buffer":0,
			"byteLength":2808,
			"byteOffset":702572,
			"target":34963
		},
		{
			"buffer":0,
			"byteLength":4104,
			"byteOffset":705380,
			"target":34962
		},
		{
			"buffer":0,
			"byteLength":4104,
			"byteOffset":709484,
			"target":34962
		},
		{
			"buffer":0,
			"byteLength":2736,
			"byteOffset":713588,
			"target":34962
		},
		{
			"buffer":0,
			"byteLength":1776,
			"byteOffset":716324,
			"target":34963
		},
		{
			"buffer":0,
			"byteLength":5964,
			"byteOffset":718100,
			"target":34962
		},
		{
			"buffer":0,
			"byteLength":5964,
			"byteOffset":724064,
			"target":34962
		},
		{
			"buffer":0,
			"byteLength":3976,
			"byteOffset":730028,
			"target":34962
		},
		{
			"buffer":0,
			"byteLength":2040,
			"byteOffset":734004,
			"target":34963
		},
		{
			"buffer":0,
			"byteLength":17772,
			"byteOffset":736044,
			"target":34962
		},
		{
			"buffer":0,
			"byteLength":17772,
			"byteOffset":753816,
			"target":34962
		},
		{
			"buffer":0,
			"byteLength":11848,
			"byteOffset":771588,
			"target":34962
		},
		{
			"buffer":0,
			"byteLength":5280,
			"byteOffset":783436,
			"target":34963
		},
		{
			"buffer":0,
			"byteLength":54372,
			"byteOffset":788716,
			"target":34962
		},
		{
			"buffer":0,
			"byteLength":54372,
			"byteOffset":843088,
			"target":34962
		},
		{
			"buffer":0,
			"byteLength":36248,
			"byteOffset":897460,
			"target":34962
		},
		{
			"buffer":0,
			"byteLength":15924,
			"byteOffset":933708,
			"target":34963
		},
		{
			"buffer":0,
			"byteLength":94932,
			"byteOffset":949632,
			"target":34962
		},
		{
			"buffer":0,
			"byteLength":94932,
			"byteOffset":1044564,
			"target":34962
		},
		{
			"buffer":0,
			"byteLength":63288,
			"byteOffset":1139496,
			"target":34962
		},
		{
			"buffer":0,
			"byteLength":37920,
			"byteOffset":1202784,
			"target":34963
		},
		{
			"buffer":0,
			"byteLength":1260,
			"byteOffset":1240704,
			"target":34962
		},
		{
			"buffer":0,
			"byteLength":1260,
			"byteOffset":1241964,
			"target":34962
		},
		{
			"buffer":0,
			"byteLength":840,
			"byteOffset":1243224,
			"target":34962
		},
		{
			"buffer":0,
			"byteLength":312,
			"byteOffset":1244064,
			"target":34963
		},
		{
			"buffer":0,
			"byteLength":71448,
			"byteOffset":1244376,
			"target":34962
		},
		{
			"buffer":0,
			"byteLength":71448,
			"byteOffset":1315824,
			"target":34962
		},
		{
			"buffer":0,
			"byteLength":47632,
			"byteOffset":1387272,
			"target":34962
		},
		{
			"buffer":0,
			"byteLength":35808,
			"byteOffset":1434904,
			"target":34963
		}
	],
	"buffers":[
		{
			"byteLength":1470712,
			"uri":"scene.bin"
		}
	]
}
