{
	"asset":{
		"generator":"Khronos glTF Blender I/O v4.0.44",
		"version":"2.0"
	},
	"scene":0,
	"scenes":[
		{
			"name":"Scene",
			"nodes":[
				11
			]
		}
	],
	"nodes":[
		{
			"name":"Arch"
		},
		{
			"name":"Door"
		},
		{
			"name":"Floor"
		},
		{
			"mesh":0,
			"name":"Lamp_TrimSheet_0"
		},
		{
			"children":[
				3
			],
			"name":"Lamp"
		},
		{
			"name":"sweep1",
			"translation":[
				0,
				-3.471672534942627,
				0
			]
		},
		{
			"mesh":1,
			"name":"Wall_TrimSheet_0"
		},
		{
			"mesh":2,
			"name":"Wall_Wall_Mat_0"
		},
		{
			"children":[
				6,
				7
			],
			"name":"Wall"
		},
		{
			"children":[
				0,
				1,
				2,
				4,
				5,
				8
			],
			"name":"RootNode"
		},
		{
			"children":[
				9
			],
			"name":"a286d7b009ed48b1b94d34b6f1a5f40e.fbx",
			"rotation":[
				0.70710688829422,
				0,
				0,
				0.7071066498756409
			],
			"scale":[
				0.009999999776482582,
				0.010000000707805157,
				0.010000000707805157
			]
		},
		{
			"children":[
				10
			],
			"name":"Sketchfab_model",
			"rotation":[
				-0.70710688829422,
				0,
				0,
				0.7071066498756409
			]
		}
	],
	"materials":[
		{
			"doubleSided":true,
			"name":"TrimSheet",
			"pbrMetallicRoughness":{
				"baseColorTexture":{
					"index":0
				},
				"metallicFactor":0,
				"roughnessFactor":0.6000000238418579
			}
		},
		{
			"doubleSided":true,
			"name":"Wall_Mat",
			"pbrMetallicRoughness":{
				"baseColorTexture":{
					"index":1
				},
				"metallicFactor":0,
				"roughnessFactor":0.6000000238418579
			}
		}
	],
	"meshes":[
		{
			"name":"Lamp_TrimSheet_0",
			"primitives":[
				{
					"attributes":{
						"POSITION":0,
						"NORMAL":1,
						"TEXCOORD_0":2
					},
					"indices":3,
					"material":0
				}
			]
		},
		{
			"name":"Wall_TrimSheet_0",
			"primitives":[
				{
					"attributes":{
						"POSITION":4,
						"NORMAL":5,
						"TEXCOORD_0":6
					},
					"indices":7,
					"material":0
				}
			]
		},
		{
			"name":"Wall_Wall_Mat_0",
			"primitives":[
				{
					"attributes":{
						"POSITION":8,
						"NORMAL":9,
						"TEXCOORD_0":10
					},
					"indices":11,
					"material":1
				}
			]
		}
	],
	"textures":[
		{
			"sampler":0,
			"source":0
		},
		{
			"sampler":0,
			"source":1
		}
	],
	"images":[
		{
			"mimeType":"image/jpeg",
			"name":"TrimSheet_baseColor",
			"uri":"textures/TrimSheet_baseColor.jpg"
		},
		{
			"mimeType":"image/jpeg",
			"name":"Wall_Mat_baseColor",
			"uri":"textures/Wall_Mat_baseColor.jpg"
		}
	],
	"accessors":[
		{
			"bufferView":0,
			"componentType":5126,
			"count":562,
			"max":[
				-90.22761535644531,
				176.7759552001953,
				99.65315246582031
			],
			"min":[
				-114.22761535644531,
				144.28744506835938,
				73.75944519042969
			],
			"type":"VEC3"
		},
		{
			"bufferView":1,
			"componentType":5126,
			"count":562,
			"type":"VEC3"
		},
		{
			"bufferView":2,
			"componentType":5126,
			"count":562,
			"type":"VEC2"
		},
		{
			"bufferView":3,
			"componentType":5123,
			"count":960,
			"type":"SCALAR"
		},
		{
			"bufferView":4,
			"componentType":5126,
			"count":748,
			"max":[
				250.3308563232422,
				250.0467987060547,
				100.42650604248047
			],
			"min":[
				-249.669189453125,
				0.0467987060546875,
				91.33626556396484
			],
			"type":"VEC3"
		},
		{
			"bufferView":5,
			"componentType":5126,
			"count":748,
			"type":"VEC3"
		},
		{
			"bufferView":6,
			"componentType":5126,
			"count":748,
			"type":"VEC2"
		},
		{
			"bufferView":7,
			"componentType":5123,
			"count":1386,
			"type":"SCALAR"
		},
		{
			"bufferView":8,
			"componentType":5126,
			"count":4,
			"max":[
				250.33084106445312,
				231.82107543945312,
				99.60304260253906
			],
			"min":[
				-249.66917419433594,
				69.88392639160156,
				99.60302734375
			],
			"type":"VEC3"
		},
		{
			"bufferView":9,
			"componentType":5126,
			"count":4,
			"type":"VEC3"
		},
		{
			"bufferView":10,
			"componentType":5126,
			"count":4,
			"type":"VEC2"
		},
		{
			"bufferView":11,
			"componentType":5123,
			"count":6,
			"type":"SCALAR"
		}
	],
	"bufferViews":[
		{
			"buffer":0,
			"byteLength":6744,
			"byteOffset":0,
			"target":34962
		},
		{
			"buffer":0,
			"byteLength":6744,
			"byteOffset":6744,
			"target":34962
		},
		{
			"buffer":0,
			"byteLength":4496,
			"byteOffset":13488,
			"target":34962
		},
		{
			"buffer":0,
			"byteLength":1920,
			"byteOffset":17984,
			"target":34963
		},
		{
			"buffer":0,
			"byteLength":8976,
			"byteOffset":19904,
			"target":34962
		},
		{
			"buffer":0,
			"byteLength":8976,
			"byteOffset":28880,
			"target":34962
		},
		{
			"buffer":0,
			"byteLength":5984,
			"byteOffset":37856,
			"target":34962
		},
		{
			"buffer":0,
			"byteLength":2772,
			"byteOffset":43840,
			"target":34963
		},
		{
			"buffer":0,
			"byteLength":48,
			"byteOffset":46612,
			"target":34962
		},
		{
			"buffer":0,
			"byteLength":48,
			"byteOffset":46660,
			"target":34962
		},
		{
			"buffer":0,
			"byteLength":32,
			"byteOffset":46708,
			"target":34962
		},
		{
			"buffer":0,
			"byteLength":12,
			"byteOffset":46740,
			"target":34963
		}
	],
	"samplers":[
		{
			"magFilter":9729,
			"minFilter":9987
		}
	],
	"buffers":[
		{
			"byteLength":46752,
			"uri":"scene.bin"
		}
	]
}
